<svg width="32" height="32" viewBox="0 0 32 32" fill="none" xmlns="http://www.w3.org/2000/svg">
<path fill-rule="evenodd" clip-rule="evenodd" d="M2.87162 20.7477C2.46004 18.6785 2.67128 16.5338 3.47861 14.5848C4.28595 12.6357 5.65312 10.9698 7.40725 9.7977C8.94968 8.76708 10.7304 8.159 12.5721 8.02724C13.7745 7.94121 14.6667 8.92298 14.6667 10V17.3334H22C23.0771 17.3334 24.0588 18.2255 23.9728 19.428C23.841 21.2697 23.233 23.0504 22.2023 24.5928C21.0303 26.3469 19.3644 27.7141 17.4153 28.5214C15.4662 29.3288 13.3215 29.54 11.2524 29.1284C9.18323 28.7168 7.28262 27.7009 5.79086 26.2092C4.2991 24.7174 3.28319 22.8168 2.87162 20.7477ZM5.94229 15.6052C5.33679 17.067 5.17836 18.6756 5.48705 20.2274C5.79573 21.7793 6.55765 23.2047 7.67647 24.3236C8.79529 25.4424 10.2208 26.2043 11.7726 26.513C13.3245 26.8217 14.933 26.6632 16.3948 26.0577C17.8566 25.4522 19.106 24.4269 19.9851 23.1113C20.6148 22.1688 21.0342 21.1078 21.2214 20H14.6667C13.1939 20 12 18.8061 12 17.3334V10.7786C10.8922 10.9658 9.8312 11.3852 8.88877 12.015C7.57317 12.894 6.54779 14.1434 5.94229 15.6052Z" fill="black"/>
<path fill-rule="evenodd" clip-rule="evenodd" d="M17.3333 4.66654C17.3333 3.58951 18.2254 2.6077 19.4279 2.69374C20.5681 2.77532 21.6895 3.03979 22.7486 3.4785C24.0428 4.01455 25.2187 4.80025 26.2091 5.79074C27.1996 6.78123 27.9853 7.95712 28.5214 9.25125C28.9601 10.3104 29.2246 11.4318 29.3061 12.572C29.3922 13.7745 28.4104 14.6666 27.3333 14.6666H20C18.5273 14.6666 17.3333 13.4727 17.3333 11.9999V4.66654ZM20 5.4451V11.9999H26.5548C26.4548 11.4084 26.2884 10.8286 26.0577 10.2718C25.6557 9.30114 25.0664 8.41923 24.3235 7.67636C23.5807 6.93349 22.6987 6.34421 21.7281 5.94217C21.1713 5.71152 20.5915 5.54509 20 5.4451Z" fill="black"/>
</svg>
