<svg width="40" height="40" viewBox="0 0 40 40" fill="none" xmlns="http://www.w3.org/2000/svg">
<path fill-rule="evenodd" clip-rule="evenodd" d="M13.3334 10.0016C13.3334 6.31973 16.3182 3.33496 20.0001 3.33496C23.682 3.33496 26.6668 6.31973 26.6668 10.0016V18.335H23.3334V10.0016C23.3334 8.16068 21.8411 6.66829 20.0001 6.66829C18.1592 6.66829 16.6668 8.16068 16.6668 10.0016V18.335H13.3334V10.0016Z" fill="black"/>
<path fill-rule="evenodd" clip-rule="evenodd" d="M16.2645 15H23.7355C25.0771 15 26.1844 15 27.0864 15.0737C28.0232 15.1502 28.8844 15.3145 29.6933 15.7266C30.9477 16.3658 31.9675 17.3857 32.6067 18.6401C33.0189 19.449 33.1831 20.3101 33.2597 21.247C33.3334 22.149 33.3333 23.2562 33.3333 24.5979V27.0688C33.3333 28.4104 33.3334 29.5177 33.2597 30.4197C33.1831 31.3565 33.0189 32.2177 32.6067 33.0266C31.9675 34.281 30.9477 35.3009 29.6933 35.94C28.8844 36.3522 28.0232 36.5165 27.0864 36.593C26.1844 36.6667 25.0771 36.6667 23.7355 36.6667H16.2645C14.9229 36.6667 13.8156 36.6667 12.9136 36.593C11.9768 36.5165 11.1156 36.3522 10.3067 35.94C9.05231 35.3009 8.03244 34.281 7.39328 33.0266C6.98113 32.2177 6.81686 31.3565 6.74031 30.4197C6.66662 29.5177 6.66664 28.4105 6.66666 27.0688V24.5978C6.66664 23.2562 6.66662 22.149 6.74031 21.247C6.81686 20.3101 6.98113 19.449 7.39328 18.6401C8.03244 17.3857 9.05231 16.3658 10.3067 15.7266C11.1156 15.3145 11.9768 15.1502 12.9136 15.0737C13.8156 15 14.9229 15 16.2645 15ZM13.1851 18.3959C12.4544 18.4556 12.0807 18.5638 11.82 18.6966C11.1928 19.0162 10.6829 19.5262 10.3633 20.1534C10.2305 20.414 10.1223 20.7877 10.0626 21.5184C10.0013 22.2685 9.99999 23.239 9.99999 24.6667V27C9.99999 28.4276 10.0013 29.3981 10.0626 30.1483C10.1223 30.879 10.2305 31.2526 10.3633 31.5133C10.6829 32.1405 11.1928 32.6504 11.82 32.97C12.0807 33.1028 12.4544 33.2111 13.1851 33.2708C13.9352 33.332 14.9057 33.3333 16.3333 33.3333H23.6667C25.0943 33.3333 26.0648 33.332 26.8149 33.2708C27.5456 33.2111 27.9193 33.1028 28.18 32.97C28.8072 32.6504 29.3171 32.1405 29.6367 31.5133C29.7695 31.2526 29.8777 30.879 29.9374 30.1483C29.9987 29.3981 30 28.4276 30 27V24.6667C30 23.239 29.9987 22.2685 29.9374 21.5184C29.8777 20.7877 29.7695 20.414 29.6367 20.1534C29.3171 19.5262 28.8072 19.0162 28.18 18.6966C27.9193 18.5638 27.5456 18.4556 26.8149 18.3959C26.0648 18.3346 25.0943 18.3333 23.6667 18.3333H16.3333C14.9057 18.3333 13.9352 18.3346 13.1851 18.3959Z" fill="black"/>
<path d="M18.3333 26.6667C18.3333 25.7462 19.0795 25 20 25C20.9205 25 21.6667 25.7462 21.6667 26.6667V28.3333C21.6667 29.2538 20.9205 30 20 30C19.0795 30 18.3333 29.2538 18.3333 28.3333V26.6667Z" fill="black"/>
</svg>
