<svg width="40" height="40" viewBox="0 0 40 40" fill="none" xmlns="http://www.w3.org/2000/svg">
<path fill-rule="evenodd" clip-rule="evenodd" d="M13.5 28C11.0147 28 9 30.0147 9 32.5C9 33.3284 9.67157 34 10.5 34H25.5C26.3284 34 27 33.3284 27 32.5C27 30.0147 24.9853 28 22.5 28H13.5ZM6 32.5C6 28.3579 9.35786 25 13.5 25H22.5C26.6421 25 30 28.3579 30 32.5C30 34.9853 27.9853 37 25.5 37H10.5C8.01472 37 6 34.9853 6 32.5Z" fill="black"/>
<path fill-rule="evenodd" clip-rule="evenodd" d="M18 10C15.5147 10 13.5 12.0147 13.5 14.5C13.5 16.9853 15.5147 19 18 19C20.4853 19 22.5 16.9853 22.5 14.5C22.5 12.0147 20.4853 10 18 10ZM10.5 14.5C10.5 10.3579 13.8579 7 18 7C22.1421 7 25.5 10.3579 25.5 14.5C25.5 18.6421 22.1421 22 18 22C13.8579 22 10.5 18.6421 10.5 14.5Z" fill="black"/>
<path fill-rule="evenodd" clip-rule="evenodd" d="M27.1667 6.99983C27.1667 3.77817 29.7783 1.1665 33 1.1665C36.2217 1.1665 38.8333 3.77817 38.8333 6.99983C38.8333 10.2215 36.2217 12.8331 33 12.8331C29.7783 12.8331 27.1667 10.2215 27.1667 6.99983ZM35.1625 6.24564C35.3903 6.01784 35.3903 5.64849 35.1625 5.42068C34.9347 5.19288 34.5653 5.19288 34.3375 5.42068L32.4167 7.34154L31.6625 6.58735C31.4347 6.35954 31.0653 6.35954 30.8375 6.58735C30.6097 6.81516 30.6097 7.1845 30.8375 7.41231L32.0042 8.57898C32.232 8.80678 32.6013 8.80678 32.8291 8.57898L35.1625 6.24564Z" fill="black"/>
</svg>
