<svg width="32" height="32" viewBox="0 0 32 32" fill="none" xmlns="http://www.w3.org/2000/svg">
<path d="M20.3885 26.2735C20.6385 26.5236 20.9777 26.6641 21.3313 26.6641C21.6849 26.6641 22.0241 26.5236 22.2741 26.2735L24.9408 23.6069C25.4615 23.0862 25.4615 22.242 24.9408 21.7213C24.4201 21.2006 23.5759 21.2006 23.0552 21.7213L22.6646 22.1118V7.73177C22.6646 6.99539 22.0677 6.39844 21.3313 6.39844C20.5949 6.39844 19.998 6.99539 19.998 7.73177V22.1118L19.6074 21.7213C19.0867 21.2006 18.2425 21.2006 17.7218 21.7213C17.2011 22.242 17.2011 23.0862 17.7218 23.6069L20.3885 26.2735Z" fill="black"/>
<path d="M11.6115 6.78896C11.3615 6.53891 11.0223 6.39844 10.6687 6.39844C10.3151 6.39844 9.97594 6.53891 9.72589 6.78896L7.05923 9.45563C6.53853 9.97633 6.53853 10.8205 7.05923 11.3412C7.57992 11.8619 8.42414 11.8619 8.94484 11.3412L9.33537 10.9507V25.8651C9.33537 26.6015 9.93232 27.1984 10.6687 27.1984C11.4051 27.1984 12.002 26.6015 12.002 25.8651V10.9507L12.3926 11.3412C12.9133 11.8619 13.7575 11.8619 14.2782 11.3412C14.7989 10.8205 14.7989 9.97633 14.2782 9.45563L11.6115 6.78896Z" fill="black"/>
</svg>
