<svg width="15" height="14" viewBox="0 0 15 14" fill="none" xmlns="http://www.w3.org/2000/svg">
<g clip-path="url(#clip0_1_56)">
<path fill-rule="evenodd" clip-rule="evenodd" d="M11.1377 7.71589C10.7586 8.05478 10.5769 8.56269 10.6552 9.06516L11.19 12.4985C11.1823 12.4971 11.176 12.495 11.1715 12.4928L8.14018 11.0623C7.93751 10.9666 7.71875 10.9188 7.5 10.9188V1.5C7.51513 1.5 7.52648 1.503 7.53345 1.50576L9.34927 4.50477C9.57161 4.87199 9.94064 5.12636 10.363 5.20347L13.3405 5.74715L11.1377 7.71589ZM8.8059 0.711217L10.6324 3.72787L13.788 4.30406C14.3377 4.40444 14.7817 4.78234 14.9393 5.28403C15.097 5.78571 14.942 6.32757 14.5374 6.68916L12.1373 8.83429L12.6926 12.3986C12.7731 12.9156 12.5385 13.4315 12.084 13.7366C11.6296 14.0416 11.0309 14.0851 10.5313 13.8494L7.5 12.4188L4.46866 13.8494C3.9691 14.0851 3.37044 14.0416 2.91598 13.7366C2.46153 13.4315 2.22689 12.9156 2.30743 12.3986L2.86265 8.83429L0.462589 6.68916C0.0580202 6.32757 -0.0969728 5.78571 0.0606659 5.28403C0.218305 4.78234 0.662307 4.40444 1.21204 4.30406L4.3676 3.72787L6.1941 0.711217C6.46019 0.271746 6.95916 0 7.5 0C8.04084 0 8.53981 0.271746 8.8059 0.711217Z" fill="black"/>
</g>
<defs>
<clipPath id="clip0_1_56">
<rect width="15" height="14" fill="white"/>
</clipPath>
</defs>
</svg>
