<svg width="32" height="32" viewBox="0 0 32 32" fill="none" xmlns="http://www.w3.org/2000/svg">
<path fill-rule="evenodd" clip-rule="evenodd" d="M16 5.33341C10.8453 5.33341 6.66667 9.51209 6.66667 14.6667C6.66667 17.6082 8.4481 20.3574 10.9399 22.5169L15.5285 26.4937C15.7991 26.7282 16.2009 26.7282 16.4716 26.4937L21.0601 22.5169C23.5519 20.3573 25.3333 17.6082 25.3333 14.6667C25.3333 9.51209 21.1547 5.33341 16 5.33341ZM4 14.6667C4 8.03933 9.37258 2.66675 16 2.66675C22.6274 2.66675 28 8.03933 28 14.6667C28 18.7019 25.587 22.1224 22.8066 24.5321L18.218 28.5088C16.9451 29.612 15.0549 29.612 13.782 28.5088L9.19341 24.5321C6.41302 22.1224 4 18.7019 4 14.6667Z" fill="black"/>
<path d="M18.6667 14.6667C18.6667 16.1394 17.4728 17.3333 16 17.3333C14.5273 17.3333 13.3333 16.1394 13.3333 14.6667C13.3333 13.1939 14.5273 12 16 12C17.4728 12 18.6667 13.1939 18.6667 14.6667Z" fill="black"/>
</svg>
