<svg width="182" height="19" viewBox="0 0 182 19" fill="none" xmlns="http://www.w3.org/2000/svg">
<g clip-path="url(#clip0_1_5)">
<path d="M46.5187 16.6299H46.3683V18.6719H44.4767V0H46.4435V7.81831H46.5939C46.9921 7.14576 48.4368 5.40246 51.1513 5.40246C54.8105 5.40246 57.4497 8.24086 57.4497 12.2252C57.4497 16.1831 54.8104 18.9971 51.0009 18.9971C48.1868 18.9949 46.8417 17.1034 46.5187 16.6299ZM55.4321 12.223C55.4321 9.28507 53.5893 7.19443 50.9256 7.19443C48.3616 7.19443 46.3683 9.03729 46.3683 12.223C46.3683 14.9375 48.0607 17.2273 50.8748 17.2273C53.5893 17.2273 55.4321 15.2605 55.4321 12.223Z" fill="black"/>
<path d="M61.1576 14.7648V7.39555H58.7175V5.72747H60.6599C61.0094 5.72747 61.2815 5.50402 61.2815 5.07926V1.96875H63.1244V5.72747H67.1088V7.39555H63.1244V14.7404C63.1244 16.1342 63.6465 16.9572 65.142 16.9572H66.934V18.6761H65.0159C62.6266 18.6739 61.1576 17.3797 61.1576 14.7648Z" fill="black"/>
<path d="M68.9626 12.1986C68.9626 8.36463 71.7766 5.40234 75.5862 5.40234C78.4003 5.40234 81.013 7.09476 81.7121 9.98404H79.6702C79.1481 8.29162 77.5043 7.19653 75.6371 7.19653C72.874 7.19653 71.0068 9.38671 71.0068 12.2008C71.0068 15.1144 72.9735 17.205 75.688 17.205C77.5552 17.205 79.2233 16.1099 79.7211 14.4175H81.7387C81.0661 17.3046 78.4269 18.9992 75.6128 18.9992C71.7014 18.9948 68.9626 16.0325 68.9626 12.1986Z" fill="black"/>
<path d="M87.8339 5.72534H89.8007V7.59253H89.9511C90.5728 6.39788 91.8183 5.40234 93.7364 5.40234C95.6788 5.40234 97.0969 6.34921 97.8203 7.7673H97.9951C98.8667 6.09922 100.285 5.40234 102.103 5.40234C104.99 5.40234 106.86 7.44431 106.86 10.2827V18.674H104.893V10.9309C104.893 8.49073 103.674 7.2452 101.756 7.2452C99.9375 7.2452 98.3446 8.5394 98.3446 10.9552V18.674H96.3779V10.5548C96.3779 8.48852 94.9841 7.24299 93.1656 7.24299C91.3471 7.24299 89.8051 8.68763 89.8051 10.8778V18.6718H87.8383V5.72534H87.8339Z" fill="black"/>
<path d="M109.594 12.2212C109.594 8.23683 112.233 5.39844 115.892 5.39844C118.607 5.39844 120.049 7.14174 120.45 7.81428H120.6V5.72365H122.567V18.6701H120.675V16.6281H120.525C120.202 17.1016 118.857 18.9931 116.043 18.9931C112.233 18.9931 109.594 16.1812 109.594 12.2212ZM120.673 12.2212C120.673 9.03326 118.682 7.19262 116.116 7.19262C113.452 7.19262 111.609 9.28325 111.609 12.2212C111.609 15.2587 113.452 17.2255 116.166 17.2255C118.981 17.2255 120.673 14.9357 120.673 12.2212Z" fill="black"/>
<path d="M126.16 5.72656H128.102V8.14241H128.253C128.627 7.04731 129.896 5.72656 131.788 5.72656H132.883V7.69331H131.812C129.447 7.69331 128.127 9.53616 128.127 12.0007V18.673H126.16V5.72656Z" fill="black"/>
<path d="M143.863 18.6719L139.754 12.1987L137.589 14.515V18.6719H135.622V0H137.589V11.827H137.739L143.292 5.72767H145.781L141.075 10.7563L146.104 18.6741H143.863V18.6719Z" fill="black"/>
<path d="M147.263 12.1986C147.263 8.06597 150.077 5.40234 153.612 5.40234C157.546 5.40234 159.887 8.28941 159.887 12.026V12.8977H149.329C149.429 15.4861 151.097 17.205 153.761 17.205C155.48 17.205 157.121 16.3843 157.719 14.8644H159.76C159.039 17.2802 156.774 18.997 153.736 18.997C149.779 18.9948 147.263 16.0834 147.263 12.1986ZM157.796 11.1521C157.621 8.56374 155.805 7.19432 153.612 7.19432C151.447 7.19432 149.579 8.76284 149.38 11.1521H157.796Z" fill="black"/>
<path d="M163.654 14.7648V7.39555H161.214V5.72747H163.156C163.506 5.72747 163.778 5.50402 163.778 5.07926V1.96875H165.621V5.72747H169.605V7.39555H165.621V14.7404C165.621 16.1342 166.143 16.9572 167.638 16.9572H169.43V18.6761H167.512C165.123 18.6739 163.654 17.3797 163.654 14.7648Z" fill="black"/>
<path d="M171.707 14.9131H173.625C173.848 16.4573 174.943 17.278 176.837 17.278C178.779 17.278 179.85 16.3312 179.85 15.0126C179.85 11.3778 172.107 14.141 172.107 9.01284C172.107 6.82265 174.074 5.40234 176.788 5.40234C179.178 5.40234 181.171 6.7961 181.37 9.13672H179.479C179.304 7.91774 178.383 7.09476 176.665 7.09476C175.045 7.09476 174.001 7.89119 174.001 9.01284C174.001 12.3003 181.768 9.56149 181.768 14.9131C181.768 17.3532 179.751 18.997 176.74 18.997C173.676 18.9948 171.932 17.3267 171.707 14.9131Z" fill="black"/>
<g opacity="0.4">
<path opacity="0.4" d="M3.1662 14.144L5.63956 18.2036C5.79 18.4514 5.61301 18.77 5.32099 18.77H0.374261C0.0822361 18.77 -0.0969609 18.4514 0.0556885 18.2036L2.52905 14.144C2.67285 13.9051 3.02018 13.9051 3.1662 14.144Z" fill="#00B287"/>
<path opacity="0.4" d="M7.73245 7.16357L10.2058 11.2232C10.3563 11.4709 10.1793 11.7895 9.88724 11.7895H4.94051C4.64849 11.7895 4.46929 11.4709 4.62194 11.2232L7.09309 7.16357C7.23911 6.92464 7.58644 6.92464 7.73245 7.16357Z" fill="#00B287"/>
</g>
<path d="M30.5634 14.144L33.0368 18.2036C33.1872 18.4514 33.0102 18.77 32.7182 18.77H27.7737C27.4816 18.77 27.3025 18.4514 27.4551 18.2036L29.9285 14.144C30.0723 13.9051 30.4174 13.9051 30.5634 14.144Z" fill="#00B287"/>
<path d="M21.4311 14.144L23.9045 18.2036C24.0549 18.4514 23.8779 18.77 23.5859 18.77H18.6392C18.3471 18.77 18.1679 18.4514 18.3206 18.2036L20.7939 14.144C20.9377 13.9051 21.2851 13.9051 21.4311 14.144Z" fill="#00B287"/>
<path d="M12.2988 14.144L14.7699 18.2036C14.9204 18.4514 14.7434 18.77 14.4513 18.77H9.50683C9.2148 18.77 9.03561 18.4514 9.18826 18.2036L11.6616 14.144C11.8054 13.9051 12.1528 13.9051 12.2988 14.144Z" fill="#00B287"/>
<path d="M16.8649 7.15967L19.3383 11.2193C19.4887 11.467 19.3117 11.7856 19.0197 11.7856H14.073C13.781 11.7856 13.6018 11.467 13.7544 11.2193L16.2278 7.15967C16.3716 6.92074 16.7189 6.92074 16.8649 7.15967Z" fill="#00B287"/>
<path d="M21.431 0.179197L23.9044 4.23879C24.0548 4.48657 23.8778 4.80514 23.5858 4.80514H18.6391C18.3471 4.80514 18.1679 4.48657 18.3205 4.23879L20.7939 0.179197C20.9377 -0.0597323 21.285 -0.0597323 21.431 0.179197Z" fill="#00B287"/>
<path d="M25.9972 7.15967L28.4706 11.2193C28.621 11.467 28.4441 11.7856 28.152 11.7856H23.2075C22.9155 11.7856 22.7363 11.467 22.8889 11.2193L25.3623 7.15967C25.5039 6.92074 25.8512 6.92074 25.9972 7.15967Z" fill="#00B287"/>
</g>
<defs>
<clipPath id="clip0_1_5">
<rect width="182" height="19" fill="white"/>
</clipPath>
</defs>
</svg>
