<svg width="40" height="40" viewBox="0 0 40 40" fill="none" xmlns="http://www.w3.org/2000/svg">
<path fill-rule="evenodd" clip-rule="evenodd" d="M17.262 5H23.3925C24.8955 4.99999 26.1078 4.99998 27.0945 5.0673C28.1091 5.13652 29.0062 5.28246 29.8557 5.63434C31.8976 6.48012 33.5199 8.10241 34.3657 10.1443C34.7175 10.9938 34.8635 11.8909 34.9327 12.9055C35 13.8922 35 15.1045 35 16.6075V16.7259C35 18.2288 35 19.4411 34.9327 20.4278C34.8635 21.4424 34.7175 22.3395 34.3657 23.189C33.5199 25.2309 31.8976 26.8532 29.8557 27.699C29.0062 28.0509 28.1091 28.1968 27.0945 28.266C26.1078 28.3334 24.8955 28.3333 23.3925 28.3333H19.0476C18.2816 28.3333 18.1289 28.341 18.0043 28.3661C17.714 28.4246 17.4446 28.5593 17.2236 28.7565C17.1288 28.8411 17.031 28.9586 16.5714 29.5714L16.5355 29.6193C15.526 30.9654 14.7215 32.038 14.0632 32.8136C13.4444 33.5425 12.7449 34.2757 11.9101 34.6208C9.61311 35.5703 6.96733 34.6884 5.69944 32.5505C5.23865 31.7736 5.11897 30.7674 5.06132 29.8129C4.99999 28.7976 4.99999 27.4567 5 25.7742V17.262C4.99998 15.4557 4.99997 13.9988 5.09636 12.819C5.19561 11.6042 5.4053 10.5372 5.90828 9.55008C6.70722 7.98206 7.98206 6.70722 9.55008 5.90828C10.5372 5.4053 11.6042 5.19561 12.819 5.09636C13.9988 4.99997 15.4557 4.99998 17.262 5ZM13.0904 8.41863C12.0818 8.50103 11.5023 8.65466 11.0634 8.8783C10.1226 9.35767 9.35767 10.1226 8.8783 11.0634C8.65466 11.5023 8.50103 12.0818 8.41863 13.0904C8.33463 14.1185 8.33333 15.439 8.33333 17.3333V25.7143C8.33333 27.4702 8.33408 28.7095 8.38859 29.6119C8.41556 30.0584 8.45325 30.3722 8.49756 30.5933C8.53512 30.7808 8.56786 30.851 8.56967 30.8555C8.99247 31.5625 9.86853 31.8545 10.6309 31.5426C10.6351 31.5401 10.7034 31.5036 10.8459 31.3761C11.0141 31.2258 11.2325 30.9974 11.522 30.6564C12.107 29.9672 12.8512 28.9761 13.9048 27.5714C13.9289 27.5392 13.9528 27.5073 13.9766 27.4756C14.3238 27.0119 14.6289 26.6044 15.0042 26.2694C15.667 25.678 16.4755 25.2737 17.3463 25.0984C17.8395 24.9991 18.3486 24.9995 18.9279 24.9999C18.9675 25 19.0074 25 19.0476 25H23.3333C24.9093 25 26.0078 24.9991 26.8676 24.9404C27.7124 24.8828 28.2044 24.775 28.5801 24.6194C29.8052 24.1119 30.7786 23.1386 31.2861 21.9134C31.4417 21.5378 31.5495 21.0458 31.6071 20.2009C31.6658 19.3411 31.6667 18.2426 31.6667 16.6667C31.6667 15.0907 31.6658 13.9922 31.6071 13.1324C31.5495 12.2876 31.4417 11.7956 31.2861 11.4199C30.7786 10.1948 29.8052 9.22141 28.5801 8.71394C28.2044 8.55834 27.7124 8.45055 26.8676 8.3929C26.0078 8.33424 24.9093 8.33333 23.3333 8.33333H17.3333C15.439 8.33333 14.1185 8.33463 13.0904 8.41863Z" fill="black"/>
<path d="M13.3333 18.3333C14.2538 18.3333 15 17.5871 15 16.6667C15 15.7462 14.2538 15 13.3333 15C12.4128 15 11.6667 15.7462 11.6667 16.6667C11.6667 17.5871 12.4128 18.3333 13.3333 18.3333Z" fill="black"/>
<path d="M21.6667 16.6667C21.6667 17.5871 20.9205 18.3333 20 18.3333C19.0795 18.3333 18.3333 17.5871 18.3333 16.6667C18.3333 15.7462 19.0795 15 20 15C20.9205 15 21.6667 15.7462 21.6667 16.6667Z" fill="black"/>
<path d="M28.3333 16.6667C28.3333 17.5871 27.5871 18.3333 26.6667 18.3333C25.7462 18.3333 25 17.5871 25 16.6667C25 15.7462 25.7462 15 26.6667 15C27.5871 15 28.3333 15.7462 28.3333 16.6667Z" fill="black"/>
</svg>
