<svg width="32" height="32" viewBox="0 0 32 32" fill="none" xmlns="http://www.w3.org/2000/svg">
<path fill-rule="evenodd" clip-rule="evenodd" d="M18.9884 2.66675H13.0116C11.9383 2.66673 11.0525 2.66672 10.3309 2.72567C9.58144 2.78691 8.8925 2.91833 8.24539 3.24805C7.24186 3.75937 6.42596 4.57527 5.91464 5.5788C5.58492 6.22591 5.4535 6.91485 5.39226 7.66431C5.33331 8.3859 5.33332 9.27171 5.33334 10.345V21.6551C5.33332 22.7284 5.33331 23.6142 5.39226 24.3358C5.4535 25.0853 5.58492 25.7742 5.91464 26.4213C6.42596 27.4249 7.24186 28.2408 8.24539 28.7521C8.8925 29.0818 9.58144 29.2132 10.3309 29.2745C11.0525 29.3334 11.9383 29.3334 13.0116 29.3334H18.9884C20.0617 29.3334 20.9475 29.3334 21.6691 29.2745C22.4186 29.2132 23.1075 29.0818 23.7546 28.7521C24.7581 28.2408 25.574 27.4249 26.0854 26.4213C26.4151 25.7742 26.5465 25.0853 26.6077 24.3358C26.6667 23.6142 26.6667 22.7285 26.6667 21.6552V10.345C26.6667 9.27172 26.6667 8.38589 26.6077 7.66431C26.5465 6.91485 26.4151 6.22591 26.0854 5.5788C25.574 4.57527 24.7581 3.75937 23.7546 3.24805C23.1075 2.91833 22.4186 2.78691 21.6691 2.72567C20.9475 2.66672 20.0617 2.66673 18.9884 2.66675ZM9.45603 5.62406C9.66457 5.51781 9.9635 5.43124 10.548 5.38348C10.9395 5.3515 11.406 5.33994 12 5.33576V6.66675C12 7.40313 12.5969 8.00008 13.3333 8.00008H18.6667C19.403 8.00008 20 7.40313 20 6.66675V5.33576C20.594 5.33994 21.0605 5.3515 21.4519 5.38348C22.0365 5.43124 22.3354 5.51781 22.544 5.62406C23.0457 5.87973 23.4537 6.28767 23.7093 6.78944C23.8156 6.99797 23.9022 7.29691 23.9499 7.88146C23.999 8.48158 24 9.25797 24 10.4001V21.6001C24 22.7422 23.999 23.5186 23.9499 24.1187C23.9022 24.7032 23.8156 25.0022 23.7093 25.2107C23.4537 25.7125 23.0457 26.1204 22.544 26.3761C22.3354 26.4823 22.0365 26.5689 21.4519 26.6167C20.8518 26.6657 20.0754 26.6667 18.9333 26.6667H13.0667C11.9246 26.6667 11.1482 26.6657 10.548 26.6167C9.9635 26.5689 9.66457 26.4823 9.45603 26.3761C8.95427 26.1204 8.54632 25.7125 8.29066 25.2107C8.1844 25.0022 8.09784 24.7032 8.05008 24.1187C8.00104 23.5186 8.00001 22.7422 8.00001 21.6001V10.4001C8.00001 9.25797 8.00104 8.48158 8.05008 7.88146C8.09784 7.29691 8.1844 6.99797 8.29066 6.78944C8.54632 6.28767 8.95427 5.87973 9.45603 5.62406Z" fill="black"/>
<path d="M16 25C17.1046 25 18 24.1046 18 23C18 21.8954 17.1046 21 16 21C14.8954 21 14 21.8954 14 23C14 24.1046 14.8954 25 16 25Z" fill="black"/>
</svg>
