<svg width="15" height="14" viewBox="0 0 15 14" fill="none" xmlns="http://www.w3.org/2000/svg">
<g clip-path="url(#clip0_1_251)">
<path fill-rule="evenodd" clip-rule="evenodd" d="M10.6552 9.06516C10.5769 8.56269 10.7586 8.05478 11.1377 7.71589L13.3405 5.74715L10.363 5.20347C9.94064 5.12636 9.57161 4.87199 9.34927 4.50477L7.53345 1.50576C7.52648 1.503 7.51513 1.5 7.5 1.5C7.48487 1.5 7.47352 1.503 7.46655 1.50576L5.65073 4.50477C5.42839 4.87199 5.05935 5.12636 4.63704 5.20347L1.65953 5.74715L3.86225 7.71589C4.24141 8.05478 4.42305 8.56269 4.34478 9.06516L3.80996 12.4985C3.81769 12.4971 3.82399 12.495 3.82848 12.4928L6.85981 11.0623C7.26517 10.871 7.73483 10.871 8.14018 11.0623L11.1715 12.4928C11.176 12.495 11.1823 12.4971 11.19 12.4985L10.6552 9.06516ZM10.6324 3.72787L8.8059 0.711217C8.53981 0.271746 8.04084 0 7.5 0C6.95916 0 6.46019 0.271746 6.1941 0.711217L4.3676 3.72787L1.21204 4.30406C0.662307 4.40444 0.218305 4.78234 0.0606659 5.28403C-0.0969728 5.78571 0.0580201 6.32757 0.462589 6.68916L2.86265 8.83429L2.30743 12.3986C2.22689 12.9156 2.46152 13.4315 2.91598 13.7366C3.37044 14.0416 3.9691 14.0851 4.46866 13.8494L7.5 12.4188L10.5313 13.8494C11.0309 14.0851 11.6296 14.0416 12.084 13.7366C12.5385 13.4315 12.7731 12.9156 12.6926 12.3986L12.1373 8.83429L14.5374 6.68916C14.942 6.32757 15.097 5.78571 14.9393 5.28403C14.7817 4.78234 14.3377 4.40444 13.788 4.30406L10.6324 3.72787Z" fill="black"/>
</g>
<defs>
<clipPath id="clip0_1_251">
<rect width="15" height="14" fill="white"/>
</clipPath>
</defs>
</svg>
