<svg width="78" height="24" viewBox="0 0 78 24" fill="none" xmlns="http://www.w3.org/2000/svg">
<g clip-path="url(#clip0_0_1)">
<path d="M12 24C18.6274 24 24 18.6274 24 12C24 5.37258 18.6274 0 12 0C5.37258 0 0 5.37258 0 12C0 18.6274 5.37258 24 12 24Z" fill="#F7931A"/>
<path d="M17.3917 10.515C17.6272 8.943 16.4295 8.09775 14.793 7.53375L15.324 5.40375L14.028 5.08125L13.5105 7.155C13.17 7.0695 12.8205 6.99 12.4717 6.9105L12.993 4.82325L11.697 4.5L11.166 6.62925C10.884 6.56475 10.6065 6.50175 10.338 6.43425L10.3395 6.4275L8.55149 5.98125L8.20649 7.36575C8.20649 7.36575 9.16874 7.58625 9.14849 7.59975C9.67349 7.731 9.76799 8.07825 9.75224 8.35425L9.14774 10.7805C9.18374 10.7895 9.23024 10.803 9.28274 10.8232L9.14549 10.7895L8.29799 14.1885C8.23349 14.3475 8.07074 14.5867 7.70324 14.496C7.71674 14.5147 6.76124 14.2612 6.76124 14.2612L6.11774 15.7448L7.80524 16.1655C8.11874 16.2443 8.42624 16.3267 8.72849 16.404L8.19224 18.558L9.48749 18.8805L10.0185 16.7505C10.3725 16.8457 10.716 16.9342 11.052 17.0182L10.5225 19.1392L11.8185 19.4618L12.3547 17.3123C14.5657 17.7308 16.2277 17.562 16.9275 15.5625C17.4915 13.953 16.8997 13.0238 15.7365 12.4185C16.584 12.2235 17.2215 11.6663 17.3917 10.515ZM14.4292 14.6685C14.0295 16.2788 11.3182 15.408 10.4392 15.1898L11.1517 12.336C12.0307 12.5557 14.8485 12.99 14.4292 14.6685ZM14.8305 10.4918C14.4652 11.9565 12.2092 11.2118 11.478 11.0295L12.123 8.442C12.8542 8.62425 15.2115 8.964 14.8305 10.4918Z" fill="white"/>
</g>
<g clip-path="url(#clip1_0_1)">
<path d="M30 24C36.6274 24 42 18.6274 42 12C42 5.37258 36.6274 0 30 0C23.3726 0 18 5.37258 18 12C18 18.6274 23.3726 24 30 24Z" fill="#627EEA"/>
<path d="M30.3735 3V9.6525L35.9963 12.165L30.3735 3Z" fill="white" fill-opacity="0.602"/>
<path d="M30.3735 3L24.75 12.165L30.3735 9.6525V3Z" fill="white"/>
<path d="M30.3735 16.476V20.9963L36 13.212L30.3735 16.476Z" fill="white" fill-opacity="0.602"/>
<path d="M30.3735 20.9963V16.4753L24.75 13.212L30.3735 20.9963Z" fill="white"/>
<path d="M30.3735 15.4298L35.9963 12.1651L30.3735 9.65405V15.4298Z" fill="white" fill-opacity="0.2"/>
<path d="M24.75 12.1651L30.3735 15.4298V9.65405L24.75 12.1651Z" fill="white" fill-opacity="0.602"/>
</g>
<g clip-path="url(#clip2_0_1)">
<path d="M48 24C54.6274 24 60 18.6274 60 12C60 5.37258 54.6274 0 48 0C41.3726 0 36 5.37258 36 12C36 18.6274 41.3726 24 48 24Z" fill="#26A17B"/>
<path fill-rule="evenodd" clip-rule="evenodd" d="M49.4415 13.0373V13.0358C49.359 13.0418 48.9337 13.0673 47.985 13.0673C47.2275 13.0673 46.6942 13.0448 46.5067 13.0358V13.038C43.5907 12.9098 41.4142 12.402 41.4142 11.7945C41.4142 11.1878 43.5907 10.68 46.5067 10.5495V12.5325C46.6972 12.546 47.2432 12.5783 47.9977 12.5783C48.903 12.5783 49.3567 12.5408 49.4415 12.5333V10.551C52.3515 10.6808 54.5227 11.1885 54.5227 11.7945C54.5227 12.402 52.3515 12.9083 49.4415 13.0373ZM49.4415 10.3448V8.57026H53.502V5.86426H42.4462V8.57026H46.5067V10.344C43.2067 10.4955 40.725 11.1495 40.725 11.9325C40.725 12.7155 43.2067 13.3688 46.5067 13.521V19.2075H49.4415V13.5195C52.7362 13.368 55.212 12.7148 55.212 11.9325C55.212 11.1503 52.7362 10.497 49.4415 10.3448Z" fill="white"/>
</g>
<g clip-path="url(#clip3_0_1)">
<path d="M66 24C72.6274 24 78 18.6274 78 12C78 5.37258 72.6274 0 66 0C59.3726 0 54 5.37258 54 12C54 18.6274 59.3726 24 66 24Z" fill="#23292F"/>
<path d="M71.3025 6H73.47L68.9587 10.4677C68.17 11.2448 67.1072 11.6804 66 11.6804C64.8928 11.6804 63.83 11.2448 63.0413 10.4677L58.5262 6H60.6975L64.125 9.39225C64.6241 9.8849 65.2972 10.1611 65.9985 10.1611C66.6998 10.1611 67.3729 9.8849 67.872 9.39225L71.3025 6ZM60.6713 18.4222H58.5L63.0413 13.9275C63.83 13.1504 64.8928 12.7148 66 12.7148C67.1072 12.7148 68.17 13.1504 68.9587 13.9275L73.5 18.4215H71.3287L67.875 15C67.3759 14.5074 66.7028 14.2311 66.0015 14.2311C65.3002 14.2311 64.6271 14.5074 64.128 15L60.6705 18.4222H60.6713Z" fill="white"/>
</g>
<defs>
<clipPath id="clip0_0_1">
<rect width="24" height="24" fill="white"/>
</clipPath>
<clipPath id="clip1_0_1">
<rect width="24" height="24" fill="white" transform="translate(18)"/>
</clipPath>
<clipPath id="clip2_0_1">
<rect width="24" height="24" fill="white" transform="translate(36)"/>
</clipPath>
<clipPath id="clip3_0_1">
<rect width="24" height="24" fill="white" transform="translate(54)"/>
</clipPath>
</defs>
</svg>
