<svg width="40" height="40" viewBox="0 0 40 40" fill="none" xmlns="http://www.w3.org/2000/svg">
<path fill-rule="evenodd" clip-rule="evenodd" d="M28 1C28.5523 1 29 1.44772 29 2V26C29 26.5523 28.5523 27 28 27C27.4477 27 27 26.5523 27 26V2C27 1.44772 27.4477 1 28 1Z" fill="black"/>
<path fill-rule="evenodd" clip-rule="evenodd" d="M31 5V23H25V5H31Z" fill="black"/>
<path fill-rule="evenodd" clip-rule="evenodd" d="M12 11C12.5523 11 13 11.4477 13 12V38C13 38.5523 12.5523 39 12 39C11.4477 39 11 38.5523 11 38V12C11 11.4477 11.4477 11 12 11Z" fill="black"/>
<path fill-rule="evenodd" clip-rule="evenodd" d="M15 16V35H9V16H15Z" fill="black"/>
</svg>
