<svg width="32" height="32" viewBox="0 0 32 32" fill="none" xmlns="http://www.w3.org/2000/svg">
<path fill-rule="evenodd" clip-rule="evenodd" d="M4 26.6668C4 25.9304 4.59695 25.3335 5.33333 25.3335H26.6667C27.403 25.3335 28 25.9304 28 26.6668C28 27.4032 27.403 28.0001 26.6667 28.0001H5.33333C4.59695 28.0001 4 27.4032 4 26.6668Z" fill="black"/>
<path fill-rule="evenodd" clip-rule="evenodd" d="M24 4C23.2636 4 22.6667 4.59695 22.6667 5.33333V12C22.6667 12.7364 23.2636 13.3333 24 13.3333C24.7364 13.3333 25.3333 12.7364 25.3333 12V5.33333C25.3333 4.59695 24.7364 4 24 4ZM13.3333 9.33333C12.597 9.33333 12 9.93029 12 10.6667V16C12 16.7364 12.597 17.3333 13.3333 17.3333C14.0697 17.3333 14.6667 16.7364 14.6667 16V10.6667C14.6667 9.93029 14.0697 9.33333 13.3333 9.33333ZM8 17.3333C7.26362 17.3333 6.66666 17.9303 6.66666 18.6667V21.3333C6.66666 22.0697 7.26362 22.6667 8 22.6667C8.73637 22.6667 9.33333 22.0697 9.33333 21.3333V18.6667C9.33333 17.9303 8.73637 17.3333 8 17.3333ZM17.3333 10.6667C17.3333 9.93029 17.9303 9.33333 18.6667 9.33333C19.4031 9.33333 20 9.93029 20 10.6667V12C20 12.7364 19.4031 13.3333 18.6667 13.3333C17.9303 13.3333 17.3333 12.7364 17.3333 12V10.6667Z" fill="black"/>
</svg>
