<svg width="32" height="32" viewBox="0 0 32 32" fill="none" xmlns="http://www.w3.org/2000/svg">
<path fill-rule="evenodd" clip-rule="evenodd" d="M11.6783 4H11.7333H20.2667H20.3217C21.395 3.99998 22.2808 3.99997 23.0024 4.05893C23.7519 4.12016 24.4408 4.25158 25.0879 4.5813C26.0915 5.09262 26.9074 5.90852 27.4187 6.91205C27.7484 7.55917 27.8798 8.2481 27.9411 8.99757C28 9.71915 28 10.605 28 11.6782V11.7333V17.6V17.6551C28 18.7284 28 19.6142 27.9411 20.3358C27.8798 21.0852 27.7484 21.7742 27.4187 22.4213C26.9074 23.4248 26.0915 24.2407 25.0879 24.752C24.7385 24.9301 24.3768 25.0503 24 25.1329V26.6667C24 27.403 23.403 28 22.6667 28C21.9303 28 21.3333 27.403 21.3333 26.6667V25.3312C21.0164 25.3333 20.6795 25.3333 20.3217 25.3333H20.2667H11.7333H11.6783C11.3206 25.3333 10.9836 25.3333 10.6667 25.3312V26.6667C10.6667 27.403 10.0697 28 9.33333 28C8.59695 28 8 27.403 8 26.6667V25.1329C7.62319 25.0503 7.26152 24.9301 6.91205 24.752C5.90852 24.2407 5.09262 23.4248 4.5813 22.4213C4.25158 21.7742 4.12016 21.0852 4.05893 20.3358C3.99997 19.6142 3.99998 18.7284 4 17.6551V17.6V11.7333V11.6783C3.99998 10.605 3.99997 9.71916 4.05893 8.99757C4.12016 8.2481 4.25158 7.55917 4.5813 6.91205C5.09262 5.90852 5.90852 5.09262 6.91205 4.5813C7.55917 4.25158 8.2481 4.12016 8.99757 4.05893C9.71916 3.99997 10.605 3.99998 11.6783 4ZM9.21472 6.71674C8.63016 6.7645 8.33123 6.85106 8.12269 6.95732C7.62093 7.21298 7.21298 7.62093 6.95732 8.12269C6.85106 8.33123 6.7645 8.63016 6.71674 9.21472C6.6677 9.81484 6.66667 10.5912 6.66667 11.7333V17.6C6.66667 18.7421 6.6677 19.5185 6.71674 20.1186C6.7645 20.7032 6.85106 21.0021 6.95732 21.2106C7.21298 21.7124 7.62093 22.1204 8.12269 22.376C8.33123 22.4823 8.63016 22.5688 9.21472 22.6166C9.81484 22.6656 10.5912 22.6667 11.7333 22.6667H20.2667C21.4088 22.6667 22.1852 22.6656 22.7853 22.6166C23.3698 22.5688 23.6688 22.4823 23.8773 22.376C24.3791 22.1204 24.787 21.7124 25.0427 21.2106C25.1489 21.0021 25.2355 20.7032 25.2833 20.1186C25.3323 19.5185 25.3333 18.7421 25.3333 17.6V11.7333C25.3333 10.5912 25.3323 9.81484 25.2833 9.21472C25.2355 8.63016 25.1489 8.33123 25.0427 8.12269C24.787 7.62093 24.3791 7.21298 23.8773 6.95732C23.6688 6.85106 23.3698 6.7645 22.7853 6.71674C22.1852 6.6677 21.4088 6.66667 20.2667 6.66667H11.7333C10.5912 6.66667 9.81484 6.6677 9.21472 6.71674Z" fill="black"/>
<path fill-rule="evenodd" clip-rule="evenodd" d="M14.6667 10.6666C14.6667 9.93021 15.2636 9.33325 16 9.33325C16.7364 9.33325 17.3333 9.93021 17.3333 10.6666V10.8942C18.4699 11.2959 19.3707 12.1967 19.7724 13.3333H20C20.7364 13.3333 21.3333 13.9302 21.3333 14.6666C21.3333 15.403 20.7364 15.9999 20 15.9999H19.7724C19.3707 17.1365 18.4699 18.0373 17.3333 18.439V18.6666C17.3333 19.403 16.7364 19.9999 16 19.9999C15.2636 19.9999 14.6667 19.403 14.6667 18.6666V18.439C13.5301 18.0373 12.6293 17.1365 12.2276 15.9999H12C11.2636 15.9999 10.6667 15.403 10.6667 14.6666C10.6667 13.9302 11.2636 13.3333 12 13.3333H12.2276C12.6293 12.1967 13.5301 11.2959 14.6667 10.8942V10.6666ZM14.6667 14.6666C14.6667 15.403 15.2636 15.9999 16 15.9999C16.7364 15.9999 17.3333 15.403 17.3333 14.6666C17.3333 13.9302 16.7364 13.3333 16 13.3333C15.2636 13.3333 14.6667 13.9302 14.6667 14.6666Z" fill="black"/>
</svg>
