<svg width="16" height="16" viewBox="0 0 16 16" fill="none" xmlns="http://www.w3.org/2000/svg">
<g clip-path="url(#clip0_1_74)">
<path fill-rule="evenodd" clip-rule="evenodd" d="M14.7204 14.3486C15.3659 14.3532 15.8949 13.8336 15.9019 13.1882L15.9999 1.17708C16.0034 0.863459 15.8806 0.562103 15.6593 0.340756C15.4379 0.119408 15.1366 -0.00335317 14.8229 6.97059e-05L2.83287 0.0980504C2.18738 0.105095 1.66783 0.634058 1.67242 1.27952C1.677 1.92498 2.20399 2.44252 2.84947 2.43548L11.9815 2.36869L0.343905 14.0064C-0.113402 14.4637 -0.114812 15.2037 0.340755 15.6593C0.796322 16.1148 1.53635 16.1135 1.99366 15.6561L13.6313 4.01844L13.5645 13.1716C13.5574 13.8171 14.075 14.344 14.7204 14.3486Z" fill="black"/>
</g>
<defs>
<clipPath id="clip0_1_74">
<rect width="16" height="16" fill="white"/>
</clipPath>
</defs>
</svg>
