<svg width="32" height="32" viewBox="0 0 32 32" fill="none" xmlns="http://www.w3.org/2000/svg">
<path fill-rule="evenodd" clip-rule="evenodd" d="M22.6667 12H29.3333V20H22.6667C20.4575 20 18.6667 18.2091 18.6667 16C18.6667 13.7909 20.4575 12 22.6667 12ZM22.6667 17.3333C23.403 17.3333 24 16.7364 24 16C24 15.2636 23.403 14.6667 22.6667 14.6667C21.9303 14.6667 21.3333 15.2636 21.3333 16C21.3333 16.7364 21.9303 17.3333 22.6667 17.3333Z" fill="black"/>
<path fill-rule="evenodd" clip-rule="evenodd" d="M10.3449 5.33325H21.6551C22.7284 5.33324 23.6142 5.33322 24.3358 5.39218C25.0852 5.45341 25.7742 5.58483 26.4213 5.91455C27.4248 6.42588 28.2407 7.24177 28.752 8.24531C29.0818 8.89242 29.2132 9.58136 29.2744 10.3308C29.3334 11.0524 29.3333 11.9382 29.3333 13.0115V18.9884C29.3333 20.0617 29.3334 20.9475 29.2744 21.669C29.2132 22.4185 29.0818 23.1074 28.752 23.7546C28.2407 24.7581 27.4248 25.574 26.4213 26.0853C25.7742 26.415 25.0852 26.5465 24.3358 26.6077C23.6142 26.6666 22.7283 26.6666 21.655 26.6666H10.345C9.27169 26.6666 8.38586 26.6666 7.66426 26.6077C6.9148 26.5465 6.22586 26.415 5.57875 26.0853C4.57521 25.574 3.75932 24.7581 3.24799 23.7546C2.91827 23.1074 2.78685 22.4185 2.72562 21.669C2.66666 20.9474 2.66668 20.0616 2.66669 18.9883V13.0115C2.66668 11.9382 2.66666 11.0524 2.72562 10.3308C2.78685 9.58136 2.91827 8.89242 3.24799 8.24531C3.75932 7.24177 4.57521 6.42588 5.57875 5.91455C6.22586 5.58483 6.9148 5.45341 7.66426 5.39218C8.38585 5.33322 9.27167 5.33324 10.3449 5.33325ZM7.88141 8.04999C7.29686 8.09775 6.99792 8.18432 6.78939 8.29057C6.28762 8.54623 5.87967 8.95418 5.62401 9.45595C5.51776 9.66448 5.43119 9.96342 5.38343 10.548C5.3344 11.1481 5.33336 11.9245 5.33336 13.0666V18.9333C5.33336 20.0754 5.3344 20.8518 5.38343 21.4519C5.43119 22.0364 5.51776 22.3354 5.62401 22.5439C5.87967 23.0457 6.28762 23.4536 6.78939 23.7093C6.99792 23.8155 7.29686 23.9021 7.88141 23.9499C8.48153 23.9989 9.25792 23.9999 10.4 23.9999H21.6C22.7421 23.9999 23.5185 23.9989 24.1186 23.9499C24.7032 23.9021 25.0021 23.8155 25.2106 23.7093C25.7124 23.4536 26.1204 23.0457 26.376 22.5439C26.4823 22.3354 26.5688 22.0364 26.6166 21.4519C26.6656 20.8518 26.6667 20.0754 26.6667 18.9333V13.0666C26.6667 11.9245 26.6656 11.1481 26.6166 10.548C26.5688 9.96342 26.4823 9.66448 26.376 9.45595C26.1204 8.95418 25.7124 8.54623 25.2106 8.29057C25.0021 8.18432 24.7032 8.09775 24.1186 8.04999C23.5185 8.00096 22.7421 7.99992 21.6 7.99992H10.4C9.25792 7.99992 8.48153 8.00096 7.88141 8.04999Z" fill="black"/>
</svg>
